<?xml version="1.0" encoding="UTF-8"?>
<svg width="676px" height="350px" viewBox="0 0 676 350" version="1.1" xmlns="http://www.w3.org/2000/svg" xmlns:xlink="http://www.w3.org/1999/xlink">
    <!-- Generator: Sketch 44 (41411) - http://www.bohemiancoding.com/sketch -->
    <title>device-android</title>
    <desc>Created with Sketch.</desc>
    <defs></defs>
    <g id="Page-1" stroke="none" stroke-width="1" fill="none" fill-rule="evenodd">
        <g id="device-android" transform="translate(338.000000, 175.000000) rotate(90.000000) translate(-338.000000, -175.000000) translate(163.000000, -163.000000)">
            <path d="M62.001,0 L288.001,0 C348.001,0 348.001,26.8633 348.001,60 L348.001,616 C348.001,649.1367 348.001,675.167 288.001,676 L62.001,676 C2.001,676 2.001,649.1367 2.001,616 L2.001,60 C2.001,26.8638 2,0 62.001,0 Z" id="Shape" fill="#DDDDDD"></path>
            <path d="M346,614.167 C346,647.3037 348.001,674.167 286,674.167 L64,674.167 C2.001,674.167 4,647.3037 4,614.167 L4,62.167 C4,29.0303 2.001,2.1553 64,2.167 L286,2.167 C348.001,1.501 346,29.0303 346,62.167 L346,614.167 Z" id="Shape" fill="#FFFFFF" fill-rule="nonzero"></path>
            <path d="M214,647.9795 C214,641.4561 214,636.167 202.1875,636.167 L142.8125,636.167 C131,636.167 131,641.4561 131,647.9795 L131,648.3545 C131,654.8779 131,660.167 142.8125,660.167 L202.1875,660.167 C214,660.167 214,654.8779 214,648.3545 L214,647.9795 Z" id="Shape" stroke="#A0A0A0" stroke-width="2" fill="#FFFFFF" fill-rule="nonzero" opacity="0.2"></path>
            <circle id="Oval" fill="#5B5B5B" fill-rule="nonzero" cx="118.0005" cy="15.167" r="7.167"></circle>
            <circle id="Oval" fill="#5B5B5B" fill-rule="nonzero" cx="228.0005" cy="15.167" r="7.167"></circle>
            <circle id="Oval" fill="#5B5B5B" fill-rule="nonzero" cx="245.0005" cy="15.167" r="7.167"></circle>
            <circle id="Oval" fill="#5B5B5B" fill-rule="nonzero" cx="287.0005" cy="21.167" r="7.167"></circle>
            <circle id="Oval" fill="#6D6D6D" fill-rule="nonzero" cx="287.0005" cy="21.167" r="4"></circle>
            <circle id="Oval" fill="#5B5B5B" fill-rule="nonzero" cx="287.0005" cy="21.167" r="1"></circle>
            <path d="M215,18.667 C215,20.5999966 213.432997,22.167 211.5,22.167 L138.5,22.167 C136.567003,22.167 135,20.5999966 135,18.667 L135,18.667 C135,16.7340034 136.567003,15.167 138.5,15.167 L211.5,15.167 C213.432997,15.167 215,16.7340034 215,18.667 L215,18.667 Z" id="Shape" fill="#DDDDDD" fill-rule="nonzero"></path>
            <path d="M2,214.167 C2,214.719285 1.55228475,215.167 1,215.167 L1,215.167 C0.44771525,215.167 0,214.719285 0,214.167 L0,104.167 C0,103.614715 0.44771525,103.167 1,103.167 L1,103.167 C1.55228475,103.167 2,103.614715 2,104.167 L2,214.167 Z" id="Shape" fill="#DDDDDD" fill-rule="nonzero"></path>
            <path d="M350,213.167 C350,213.719285 349.552285,214.167 349,214.167 L349,214.167 C348.447715,214.167 348,213.719285 348,213.167 L348,155.167 C348,154.614715 348.447715,154.167 349,154.167 L349,154.167 C349.552285,154.167 350,154.614715 350,155.167 L350,213.167 Z" id="Shape" fill="#DDDDDD" fill-rule="nonzero"></path>
            <rect id="Rectangle-path" fill="#7E7E7E" fill-rule="nonzero" x="17" y="60.167" width="318" height="557" rx="5"></rect>
        </g>
    </g>
</svg>