<svg id="S4" xmlns="http://www.w3.org/2000/svg" width="350" height="676" viewBox="0 0 350 676"><title>android</title><path d="M375.3765,64.6962h226c60,0,60,26.8633,60,60v556c0,33.1367,0,59.167-60,60h-226c-60,0-60-26.8633-60-60v-556C315.3765,91.56,315.3755,64.6962,375.3765,64.6962Z" transform="translate(-313.3755 -64.6962)" fill="#ddd" fill-rule="evenodd"/><path d="M659.3755,678.8632c0,33.1367,2.001,60-60,60h-222c-61.999,0-60-26.8633-60-60v-552c0-33.1367-1.999-60.0117,60-60h222c62.001-.666,60,26.8633,60,60Z" transform="translate(-313.3755 -64.6962)" fill="#fff"/><path d="M527.3755,712.6757c0-6.5234,0-11.8125-11.8125-11.8125H456.188c-11.8125,0-11.8125,5.2891-11.8125,11.8125v.375c0,6.5234,0,11.8125,11.8125,11.8125h59.375c11.8125,0,11.8125-5.2891,11.8125-11.8125Z" transform="translate(-313.3755 -64.6962)" fill="#fff" stroke="#a0a0a0" stroke-miterlimit="10" stroke-width="2" opacity="0.2"/><circle cx="118.0005" cy="15.167" r="7.167" fill="#5b5b5b"/><circle cx="228.0005" cy="15.167" r="7.167" fill="#5b5b5b"/><circle cx="245.0005" cy="15.167" r="7.167" fill="#5b5b5b"/><circle cx="287.0005" cy="21.167" r="7.167" fill="#5b5b5b"/><circle cx="287.0005" cy="21.167" r="4" fill="#6d6d6d"/><circle cx="287.0005" cy="21.167" r="1" fill="#5b5b5b"/><path d="M528.3755,83.3632a3.5,3.5,0,0,1-3.5,3.5h-73a3.5,3.5,0,0,1-3.5-3.5h0a3.5,3.5,0,0,1,3.5-3.5h73a3.5,3.5,0,0,1,3.5,3.5Z" transform="translate(-313.3755 -64.6962)" fill="#ddd"/><path d="M315.3755,278.8632a1,1,0,0,1-1,1h0a1,1,0,0,1-1-1v-110a1,1,0,0,1,1-1h0a1,1,0,0,1,1,1Z" transform="translate(-313.3755 -64.6962)" fill="#ddd"/><path d="M663.3755,277.8632a1,1,0,0,1-1,1h0a1,1,0,0,1-1-1v-58a1,1,0,0,1,1-1h0a1,1,0,0,1,1,1Z" transform="translate(-313.3755 -64.6962)" fill="#ddd"/><rect x="17" y="60.167" width="318" height="557" rx="5" ry="5" fill="#7e7e7e"/></svg>
