<?xml version="1.0" encoding="UTF-8"?>
<svg width="65px" height="65px" viewBox="0 0 65 65" version="1.1" xmlns="http://www.w3.org/2000/svg" xmlns:xlink="http://www.w3.org/1999/xlink">
    <!-- Generator: Sketch 47.1 (45422) - http://www.bohemiancoding.com/sketch -->
    <title>Group 13</title>
    <desc>Created with Sketch.</desc>
    <defs></defs>
    <g id="Page-1" stroke="none" stroke-width="1" fill="none" fill-rule="evenodd">
        <g id="Desktop-Copy-15" transform="translate(-454.000000, -1090.000000)">
            <g id="Group-13" transform="translate(454.000000, 1090.000000)">
                <circle id="Oval-2" fill="#47B9F3" cx="32.5" cy="32.5" r="32.5"></circle>
                <g id="Page-1" transform="translate(14.000000, 15.000000)">
                    <polygon id="Stroke-1" stroke-opacity="0.00784313771" stroke="#000000" stroke-width="0.5" points="1 0 36.9999977 0 36.9999977 35.9999977 1 35.9999977"></polygon>
                    <path d="M12.5898245,14.9971037 L24.5897478,26.9971487 L9.99932425,26.9971487 C6.68582464,26.9971487 3.99932497,24.3106484 3.99932497,20.997149 C3.99932497,17.6836483 6.68582464,14.9971037 9.99932425,14.9971037 L12.5898245,14.9971037 Z M5.49932488,7.90661954 L9.62432427,12.0166047 C4.83632469,12.222089 0.999324799,16.1581496 0.999324799,20.997149 C0.999324799,25.9681475 5.02982497,29.9971485 9.99932425,29.9971485 L27.5897477,29.9971485 L30.5897475,32.9971483 L32.4992484,31.0891495 L7.40880975,5.99710464 L5.49932488,7.90661954 Z M30.031748,15.0511483 C29.0102483,9.88960445 24.4607486,5.99710464 18.9992492,5.99710464 C16.7837491,5.99710464 14.7243091,6.64808996 12.9843244,7.75508976 L15.1773234,9.94810449 C16.3202491,9.3466045 17.6177486,8.9971041 18.9992492,8.9971041 C23.5562491,8.9971041 27.2492487,12.6901037 27.2492487,17.2471493 L27.2492487,17.9971492 L29.4992486,17.9971492 C31.9847478,17.9971492 33.9992483,20.0116483 33.9992483,22.497149 C33.9992483,24.1966481 33.0452488,25.6591485 31.6547489,26.4241489 L33.8313979,28.6021481 C35.7437484,27.2431481 36.9992481,25.0216497 36.9992481,22.497149 C36.9992481,18.5371487 33.9212483,15.3286489 30.031748,15.0511483 Z" id="Fill-2" fill="#3682C1"></path>
                </g>
            </g>
        </g>
    </g>
</svg>