<?xml version="1.0" encoding="utf-8"?>
<!-- Generator: Adobe Illustrator 20.0.0, SVG Export Plug-In . SVG Version: 6.00 Build 0)  -->
<svg version="1.1" id="Layer_1" xmlns="http://www.w3.org/2000/svg" xmlns:xlink="http://www.w3.org/1999/xlink" x="0px" y="0px"
	 viewBox="0 0 50 50" style="enable-background:new 0 0 50 50;" xml:space="preserve">
<style type="text/css">
	.st0{clip-path:url(#SVGID_2_);}
	.st1{fill:#1078BF;}
	.st2{fill:#DDE3E9;}
	.st3{fill:#5B819D;}
	.st4{fill:#2D9BDF;}
	.st5{fill:#21A35F;}
	.st6{fill:#2B9969;}
	.st7{clip-path:url(#SVGID_4_);}
	.st8{fill:#47B9F3;}
	.st9{fill:#77CCF7;}
	.st10{fill:#C9E8F4;}
</style>
<g>
	<defs>
		<path id="SVGID_1_" d="M27.4,42.7L2.1,31.3c-0.9-0.4-1.2-1.4-0.9-2.3c0.1-0.3,0.4-0.6,0.7-0.8l15.3-9.1c1.1-0.7,2.4-0.7,3.6-0.2
			l25.3,11.4c0.9,0.4,1.2,1.4,0.9,2.3c-0.1,0.3-0.4,0.6-0.7,0.8L31,42.5C29.9,43.1,28.6,43.2,27.4,42.7"/>
	</defs>
	<use xlink:href="#SVGID_1_"  style="overflow:visible;fill:#1078BF;"/>
	<clipPath id="SVGID_2_">
		<use xlink:href="#SVGID_1_"  style="overflow:visible;"/>
	</clipPath>
	<g class="st0">
		<polyline class="st1" points="47.5,44.3 -1,44.3 -1,16.8 47.5,16.8 47.5,44.3 		"/>
	</g>
</g>
<path class="st2" d="M47,25.9c-0.1,0.3-0.4,0.6-0.7,0.8l-3.5,2.1l1.6,0.7l0.7,0.3l1.8-1.1c0.8-0.5,1.1-1.5,0.6-2.3
	C47.3,26.2,47.1,26.1,47,25.9 M1.8,24.6c-0.3,0.8,0.1,1.8,0.9,2.2l1.1,0.5l1.7-1l-3.3-1.5C2,24.7,1.9,24.6,1.8,24.6"/>
<polyline class="st3" points="42.8,28.8 41.6,29.5 44.3,29.5 42.8,28.8 "/>
<path class="st3" d="M40,32.8h-0.6c0,0.1,0,0.2,0.1,0.3L40,32.8"/>
<path class="st4" d="M27.4,36.1L2.1,24.7c-0.9-0.4-1.2-1.4-0.9-2.3c0.1-0.3,0.4-0.6,0.7-0.8l15.3-9.1c1.1-0.7,2.4-0.7,3.6-0.2
	l25.3,11.4c0.9,0.4,1.2,1.4,0.9,2.3c-0.1,0.3-0.4,0.6-0.7,0.8L31,35.9C29.9,36.5,28.6,36.6,27.4,36.1"/>
<polyline class="st5" points="18.9,21.8 14.9,21.5 15.1,19.5 19,19.8 18.9,21.8 "/>
<path class="st2" d="M19.8,7.1c-0.7,0-1.4,0.2-2,0.6L2.5,16.8c-0.8,0.5-1.1,1.5-0.6,2.3c0.2,0.3,0.4,0.5,0.8,0.7L4,20.5l0.9-0.5l0,0
	l0.6-0.4l0,0l1.8-1.1l0,0l0.6-0.3l0,0l1.3-0.8l0,0L9.8,17l0,0l2.7-1.6l0,0l4.7-2.8c1.1-0.7,2.4-0.7,3.6-0.2l1.6,0.7l0,0l3.6,1.6l0,0
	l0.6,0.3l0,0l3.9,1.8l0,0l4.9,2.2l0,0l3.8,1.7l0,0l1.2,0.6l0,0l0.8,0.3l0,0l3.4,1.5l2.1-1.3c0.8-0.5,1.1-1.5,0.6-2.3
	c-0.2-0.3-0.4-0.5-0.8-0.7L21.4,7.5C20.9,7.3,20.3,7.1,19.8,7.1"/>
<polyline class="st6" points="15.1,19.5 15,20.3 15,20.9 14.9,21.5 18.9,21.8 18.9,21 19,20.4 19,19.8 15.1,19.5 "/>
<g>
	<defs>
		<path id="SVGID_3_" d="M28.3,29.2L3,17.9c-0.9-0.4-1.2-1.4-0.9-2.3c0.1-0.3,0.4-0.6,0.7-0.8l15.3-9.1C19.2,5,20.5,5,21.7,5.5
			l25.3,11.4c0.9,0.4,1.2,1.4,0.9,2.3c-0.1,0.3-0.4,0.6-0.7,0.8L31.9,29C30.8,29.7,29.4,29.7,28.3,29.2"/>
	</defs>
	<use xlink:href="#SVGID_3_"  style="overflow:visible;fill:#47B9F3;"/>
	<clipPath id="SVGID_4_">
		<use xlink:href="#SVGID_3_"  style="overflow:visible;"/>
	</clipPath>
	<g class="st7">
		<path class="st8" d="M37.3,47.2l-38.9-18c-1.3-0.6-1.8-2.1-1.3-3.4L11.4-5c0.6-1.3,2.1-1.8,3.4-1.3l38.9,18
			c1.3,0.6,1.8,2.1,1.3,3.4L40.7,46C40.1,47.2,38.6,47.8,37.3,47.2z"/>
		<rect x="1" y="14.7" transform="matrix(0.8376 -0.5462 0.5462 0.8376 -6.4633 14.1424)" class="st9" width="39" height="6.4"/>
		<path class="st9" d="M14,30.7l18.4-12.2c0.8-0.5,1.8-0.3,2.3,0.5l1.5,2.3c0.5,0.8,0.3,1.8-0.5,2.3L17.4,35.8
			c-0.8,0.5-1.8,0.3-2.3-0.5L13.6,33C13.1,32.2,13.3,31.2,14,30.7L14,30.7z"/>
		<rect x="25" y="-6.6" transform="matrix(0.4503 -0.8929 0.8929 0.4503 -0.4269 34.1388)" class="st9" width="5" height="48"/>
		<polyline class="st8" points="5.9,7 6.8,7.4 7.2,6.7 6.3,6.2 		"/>
		<path class="st10" d="M44.3,26.4l1.8,0.9l0.4-0.8l-1.8-0.9L44.3,26.4z M40.7,24.6l1.8,0.9l0.4-0.8l-1.8-0.9L40.7,24.6z M37.1,22.8
			l1.8,0.9l0.4-0.8L37.5,22L37.1,22.8z M33.6,21l1.8,0.9l0.4-0.8L34,20.2L33.6,21z M30,19.2l1.8,0.9l0.4-0.8l-1.8-0.9L30,19.2z
			 M26.4,17.4l1.8,0.9l0.4-0.8l-1.8-0.9L26.4,17.4z M22.9,15.6l1.8,0.9l0.4-0.8l-1.8-0.9L22.9,15.6z M19.3,13.8l1.8,0.9l0.4-0.8
			L19.7,13L19.3,13.8z M15.7,12l1.8,0.9l0.4-0.8l-1.8-0.9L15.7,12z M12.1,10.1l1.8,0.9l0.4-0.8l-1.8-0.9L12.1,10.1z M8.6,8.3
			l1.8,0.9l0.4-0.8L9,7.6L8.6,8.3z"/>
		<polyline class="st8" points="47.8,28.2 48.7,28.6 49.1,27.8 48.2,27.4 		"/>
		<polyline class="st10" points="20.1,17.9 19.3,18.5 19.7,19.2 20.6,18.6 		"/>
		<path class="st10" d="M8.2,25.7l-1.6,1l0.5,0.7l1.6-1L8.2,25.7z M11.4,23.6l-1.6,1l0.5,0.7l1.6-1L11.4,23.6z M14.5,21.6l-1.6,1
			l0.5,0.7l1.6-1L14.5,21.6z M17.7,19.5l-1.6,1l0.5,0.7l1.6-1L17.7,19.5z"/>
		<polyline class="st8" points="5.1,27.7 4.2,28.3 4.7,29 5.5,28.5 		"/>
		<polyline class="st8" points="38.5,6.2 37.6,6.8 38.1,7.5 39,6.9 		"/>
		<path class="st10" d="M31.8,10.6l-2,1.3l0.5,0.7l2-1.3L31.8,10.6z M35.7,8l-2,1.3l0.5,0.7l2-1.3L35.7,8z"/>
		<polyline class="st10" points="27.9,13.1 27,13.7 27.5,14.4 28.3,13.9 		"/>
		<polyline class="st10" points="29.8,23.4 28.9,24 29.4,24.7 30.2,24.1 		"/>
		<path class="st10" d="M20.1,29.8L18.3,31l0.5,0.7l1.8-1.2L20.1,29.8z M23.6,27.5l-1.8,1.2l0.5,0.7l1.8-1.2L23.6,27.5z M27.2,25.1
			l-1.8,1.2l0.5,0.7l1.8-1.2L27.2,25.1z"/>
	</g>
</g>
</svg>
